<?xml version="1.0" encoding="UTF-8" standalone="no" ?>
<!DOCTYPE svg PUBLIC "-//W3C//DTD SVG 1.1//EN" "http://www.w3.org/Graphics/SVG/1.1/DTD/svg11.dtd">
<svg xmlns="http://www.w3.org/2000/svg" xmlns:xlink="http://www.w3.org/1999/xlink" version="1.1" width="680" height="200" viewBox="0 0 680 200" xml:space="preserve">
<desc>Created with Fabric.js 5.2.4</desc>
<defs>
</defs>
<rect x="0" y="0" width="100%" height="100%" fill="transparent"></rect>
<g transform="matrix(1 0 0 1 340 100)" id="58058c00-75ec-4c7c-a197-7ca084da670a"  >
<rect style="stroke: none; stroke-width: 1; stroke-dasharray: none; stroke-linecap: butt; stroke-dashoffset: 0; stroke-linejoin: miter; stroke-miterlimit: 4; fill: rgb(255,255,255); fill-rule: nonzero; opacity: 1; visibility: hidden;" vector-effect="non-scaling-stroke"  x="-340" y="-100" rx="0" ry="0" width="680" height="200" />
</g>
<g transform="matrix(Infinity NaN NaN Infinity 0 0)" id="f64e9fb0-3b26-45c4-ad8e-fdf6bdec9832"  >
</g>
<g transform="matrix(1.77 0 0 1.77 340 100)"  >
<g style=""   >
		<g transform="matrix(1.26 0 0 1.26 -164.44 19.98)"  >
<path style="stroke: none; stroke-width: 1; stroke-dasharray: none; stroke-linecap: butt; stroke-dashoffset: 0; stroke-linejoin: miter; stroke-miterlimit: 4; fill: rgb(0,0,0); fill-rule: nonzero; opacity: 1;" vector-effect="non-scaling-stroke"  transform=" translate(-27.11, -65.83)" d="M 35 65.833 C 35 57.245999999999995 38.535 49.473 44.219 43.876999999999995 C 41.156 42.471 37.761 41.666999999999994 34.167 41.666999999999994 C 20.82 41.667 10 52.487 10 65.833 C 10 79.18 20.82 90 34.167 90 C 37.761 90 41.155 89.196 44.219 87.79 C 38.535 82.194 35 74.421 35 65.833 z" stroke-linecap="round" />
</g>
		<g transform="matrix(1.26 0 0 1.26 -115.75 28.82)"  >
<path style="stroke: none; stroke-width: 1; stroke-dasharray: none; stroke-linecap: butt; stroke-dashoffset: 0; stroke-linejoin: miter; stroke-miterlimit: 4; fill: rgb(0,0,0); fill-rule: nonzero; opacity: 1;" vector-effect="non-scaling-stroke"  transform=" translate(-65.83, -72.89)" d="M 65.833 65 C 57.245999999999995 65 49.473 61.465 43.876999999999995 55.778 C 42.471 58.844 41.666999999999994 62.239 41.666999999999994 65.833 C 41.667 79.18 52.487 90 65.833 90 C 79.18 90 90 79.18 90 65.833 C 90 62.239 89.196 58.845 87.79 55.778 C 82.194 61.465 74.421 65 65.833 65 z" stroke-linecap="round" />
</g>
		<g transform="matrix(1.26 0 0 1.26 -106.91 -19.82)"  >
<path style="stroke: none; stroke-width: 1; stroke-dasharray: none; stroke-linecap: butt; stroke-dashoffset: 0; stroke-linejoin: miter; stroke-miterlimit: 4; fill: rgb(0,0,0); fill-rule: nonzero; opacity: 1;" vector-effect="non-scaling-stroke"  transform=" translate(-72.89, -34.17)" d="M 65.833 10 C 62.239 10 58.845 10.804 55.778 12.21 C 61.465 17.806 65 25.579 65 34.167 C 65 42.754000000000005 61.465 50.527 55.778 56.123000000000005 C 58.844 57.529 62.239 58.333000000000006 65.833 58.333000000000006 C 79.18 58.333 90 47.513 90 34.167 C 90 20.82 79.18 10 65.833 10 z" stroke-linecap="round" />
</g>
		<g transform="matrix(1.26 0 0 1.26 -155.55 -28.71)"  >
<path style="stroke: none; stroke-width: 1; stroke-dasharray: none; stroke-linecap: butt; stroke-dashoffset: 0; stroke-linejoin: miter; stroke-miterlimit: 4; fill: rgb(0,0,0); fill-rule: nonzero; opacity: 1;" vector-effect="non-scaling-stroke"  transform=" translate(-34.17, -27.11)" d="M 34.167 35 C 42.754000000000005 35 50.527 38.535 56.123000000000005 44.219 C 57.529 41.156 58.333000000000006 37.761 58.333000000000006 34.167 C 58.333 20.82 47.513 10 34.167 10 C 20.82 10 10 20.82 10 34.167 C 10 37.761 10.804 41.155 12.21 44.219 C 17.806 38.535 25.579 35 34.167 35 z" stroke-linecap="round" />
</g>
		<g transform="matrix(2.86 0 0 2.86 60.3 0.32)"  >
<path style="stroke: none; stroke-width: 1; stroke-dasharray: none; stroke-linecap: butt; stroke-dashoffset: 0; stroke-linejoin: miter; stroke-miterlimit: 4; fill: rgb(0,0,0); fill-rule: nonzero; opacity: 1;" vector-effect="non-scaling-stroke"  transform=" translate(-44.93, -13.56)" d="M 7.38 20 C 6.2 20 5.1 19.72 4.14 19.16 C 3.1599999999999997 18.580000000000002 2.3999999999999995 17.8 1.8399999999999999 16.84 C 1.2799999999999998 15.86 0.9999999999999999 14.74 0.9999999999999999 13.54 C 0.9999999999999999 12.339999999999998 1.2799999999999998 11.239999999999998 1.8599999999999999 10.28 C 2.42 9.299999999999999 3.2199999999999998 8.52 4.199999999999999 7.959999999999999 C 5.199999999999999 7.399999999999999 6.319999999999999 7.119999999999999 7.539999999999999 7.119999999999999 C 8.42 7.119999999999999 9.28 7.279999999999999 10.139999999999999 7.619999999999999 C 10.979999999999999 7.9399999999999995 11.719999999999999 8.399999999999999 12.319999999999999 8.979999999999999 C 12.419999999999998 9.059999999999999 12.439999999999998 9.2 12.359999999999998 9.319999999999999 L 10.899999999999999 11.239999999999998 C 10.839999999999998 11.299999999999999 10.78 11.339999999999998 10.7 11.359999999999998 C 10.639999999999999 11.359999999999998 10.559999999999999 11.319999999999999 10.5 11.279999999999998 C 10.1 10.879999999999997 9.64 10.559999999999997 9.1 10.339999999999998 C 8.58 10.119999999999997 8.059999999999999 9.999999999999998 7.539999999999999 9.999999999999998 C 6.919999999999999 9.999999999999998 6.339999999999999 10.159999999999998 5.839999999999999 10.459999999999999 C 5.3199999999999985 10.78 4.919999999999999 11.2 4.619999999999999 11.739999999999998 C 4.319999999999999 12.279999999999998 4.179999999999999 12.879999999999999 4.179999999999999 13.54 C 4.179999999999999 14.2 4.3199999999999985 14.819999999999999 4.619999999999999 15.36 C 4.92 15.9 5.339999999999999 16.34 5.839999999999999 16.66 C 6.359999999999999 16.96 6.9399999999999995 17.12 7.539999999999999 17.12 C 7.859999999999999 17.12 8.2 17.060000000000002 8.579999999999998 16.96 C 8.899999999999999 16.86 9.239999999999998 16.720000000000002 9.54 16.560000000000002 L 9.54 15.640000000000002 L 8.16 15.640000000000002 C 8.08 15.640000000000002 8.02 15.620000000000003 7.98 15.560000000000002 C 7.920000000000001 15.520000000000003 7.9 15.460000000000003 7.9 15.380000000000003 L 7.92 13.140000000000002 C 7.92 13.000000000000002 8.04 12.880000000000003 8.18 12.880000000000003 L 12.059999999999999 12.880000000000003 C 12.2 12.880000000000003 12.319999999999999 13.000000000000002 12.319999999999999 13.140000000000002 L 12.319999999999999 18.160000000000004 C 12.319999999999999 18.240000000000002 12.28 18.320000000000004 12.2 18.380000000000003 C 11.58 18.860000000000003 10.82 19.26 9.94 19.540000000000003 C 9.059999999999999 19.840000000000003 8.2 20.000000000000004 7.379999999999999 20.000000000000004 z M 14.66 20 C 14.5 20 14.4 19.88 14.4 19.74 L 14.4 7.759999999999998 C 14.4 7.619999999999998 14.5 7.499999999999998 14.66 7.499999999999998 L 19.54 7.499999999999998 C 21.06 7.499999999999998 22.259999999999998 7.879999999999998 23.099999999999998 8.659999999999998 C 24.339999999999996 9.779999999999998 24.759999999999998 11.899999999999999 24.159999999999997 13.459999999999997 C 23.939999999999998 14.019999999999998 23.559999999999995 14.539999999999997 23.08 14.919999999999998 C 22.799999999999997 15.139999999999999 22.5 15.299999999999999 22.2 15.459999999999997 C 23.06 16.819999999999997 24.36 19.58 24.36 19.58 C 24.38 19.619999999999997 24.419999999999998 19.68 24.419999999999998 19.74 C 24.419999999999998 19.88 24.299999999999997 20 24.159999999999997 20 L 21.199999999999996 20 C 21.119999999999997 20 21.019999999999996 19.94 20.979999999999997 19.86 L 19.24 16.04 C 18.619999999999997 16.08 18.139999999999997 16.06 17.5 16.06 L 17.5 19.74 C 17.5 19.88 17.38 20 17.24 20 L 14.659999999999998 20 z M 17.5 13.280000000000001 C 17.5 13.280000000000001 20.02 13.56 20.9 12.98 C 21.24 12.76 21.439999999999998 12.22 21.439999999999998 11.82 C 21.419999999999998 11.38 21.2 10.92 20.839999999999996 10.64 C 20.459999999999997 10.32 19.519999999999996 10.22 19.039999999999996 10.22 L 17.499999999999996 10.26 L 17.499999999999996 13.28 z M 32.88 20 C 31.680000000000003 20 30.580000000000002 19.72 29.620000000000005 19.16 C 28.640000000000004 18.6 27.860000000000003 17.8 27.280000000000005 16.84 C 26.720000000000006 15.86 26.440000000000005 14.74 26.440000000000005 13.54 C 26.440000000000005 12.36 26.720000000000006 11.26 27.280000000000005 10.28 C 27.860000000000003 9.299999999999999 28.620000000000005 8.52 29.600000000000005 7.959999999999999 C 30.580000000000005 7.399999999999999 31.680000000000007 7.119999999999999 32.88 7.119999999999999 C 34.06 7.119999999999999 35.160000000000004 7.3999999999999995 36.14 7.959999999999999 C 37.12 8.52 37.9 9.299999999999999 38.46 10.28 C 39.04 11.26 39.32 12.36 39.32 13.54 C 39.32 14.739999999999998 39.04 15.84 38.46 16.82 C 37.9 17.8 37.12 18.580000000000002 36.14 19.16 C 35.160000000000004 19.72 34.06 20 32.88 20 z M 32.92 17.12 C 33.5 17.12 34.04 16.96 34.52 16.66 C 35.02 16.34 35.42 15.92 35.7 15.36 C 36 14.82 36.14 14.2 36.14 13.54 C 36.14 12.899999999999999 36 12.28 35.7 11.739999999999998 C 35.42 11.2 35.02 10.779999999999998 34.52 10.459999999999999 C 34.040000000000006 10.159999999999998 33.5 9.999999999999998 32.92 9.999999999999998 C 32.32 9.999999999999998 31.78 10.159999999999998 31.28 10.459999999999999 C 30.76 10.78 30.36 11.2 30.060000000000002 11.739999999999998 C 29.76 12.299999999999999 29.62 12.899999999999999 29.62 13.54 C 29.62 14.2 29.76 14.819999999999999 30.060000000000002 15.36 C 30.380000000000003 15.899999999999999 30.78 16.34 31.28 16.64 C 31.78 16.96 32.32 17.12 32.92 17.12 z M 46.54 20 C 45.46 20 44.68 19.78 43.86 19.34 C 43.06 18.9 42.42 18.28 41.98 17.46 C 41.54 16.66 41.32 15.700000000000001 41.32 14.600000000000001 L 41.32 7.560000000000001 C 41.32 7.420000000000002 41.44 7.320000000000001 41.58 7.320000000000001 L 44.18 7.320000000000001 C 44.32 7.320000000000001 44.42 7.420000000000001 44.42 7.560000000000001 L 44.42 14.600000000000001 C 44.42 15.400000000000002 44.64 16.020000000000003 45.06 16.46 C 45.480000000000004 16.9 45.86 17.12 46.56 17.12 C 47.260000000000005 17.12 47.620000000000005 16.900000000000002 48.02 16.48 C 48.42 16.04 48.620000000000005 15.4 48.620000000000005 14.600000000000001 L 48.620000000000005 7.560000000000001 C 48.620000000000005 7.420000000000002 48.74 7.320000000000001 48.88 7.320000000000001 L 51.480000000000004 7.320000000000001 C 51.620000000000005 7.320000000000001 51.74 7.420000000000001 51.74 7.560000000000001 L 51.74 14.600000000000001 C 51.74 15.700000000000001 51.52 16.66 51.080000000000005 17.46 C 50.660000000000004 18.28 50.02 18.900000000000002 49.220000000000006 19.34 C 48.42000000000001 19.779999999999998 47.620000000000005 20 46.540000000000006 20 z M 53.980000000000004 20 C 53.84 20 53.74 19.88 53.74 19.74 L 53.74 7.759999999999998 C 53.74 7.619999999999998 53.84 7.499999999999998 53.980000000000004 7.499999999999998 L 58.88 7.499999999999998 C 60.400000000000006 7.499999999999998 61.6 7.879999999999998 62.440000000000005 8.659999999999998 C 63.68000000000001 9.779999999999998 64.10000000000001 11.899999999999999 63.50000000000001 13.459999999999997 C 63.28000000000001 14.019999999999998 62.900000000000006 14.539999999999997 62.42000000000001 14.919999999999998 C 60.80000000000001 16.18 58.78000000000001 16.06 56.84000000000001 16.06 L 56.84000000000001 19.74 C 56.84000000000001 19.88 56.72000000000001 20 56.58000000000001 20 L 53.98000000000001 20 z M 56.84 13.280000000000001 C 56.84 13.280000000000001 59.36000000000001 13.56 60.24 12.98 C 60.580000000000005 12.76 60.78 12.22 60.78 11.82 C 60.76 11.38 60.54 10.92 60.18 10.64 C 59.8 10.32 58.86 10.22 58.38 10.22 L 56.84 10.26 L 56.84 13.28 z M 66.06 20 C 65.92 20 65.8 19.88 65.8 19.74 L 65.8 17.919999999999998 C 65.8 17.86 65.82 17.799999999999997 65.86 17.74 L 71.12 10.279999999999998 L 66.28 10.279999999999998 C 66.14 10.279999999999998 66.02 10.159999999999998 66.02 10.019999999999998 L 66.02 7.759999999999998 C 66.02 7.619999999999998 66.14 7.499999999999998 66.28 7.499999999999998 L 74.96000000000001 7.499999999999998 C 75.10000000000001 7.499999999999998 75.22000000000001 7.619999999999998 75.22000000000001 7.759999999999998 L 75.22000000000001 9.579999999999998 C 75.22000000000001 9.619999999999997 75.20000000000002 9.679999999999998 75.16000000000001 9.739999999999998 L 69.94000000000001 17.22 L 75.06000000000002 17.22 C 75.14000000000001 17.22 75.20000000000002 17.259999999999998 75.24000000000002 17.299999999999997 C 75.30000000000003 17.339999999999996 75.32000000000002 17.419999999999998 75.32000000000002 17.479999999999997 L 75.30000000000003 19.739999999999995 C 75.30000000000003 19.879999999999995 75.20000000000003 19.999999999999996 75.04000000000002 19.999999999999996 L 66.06000000000002 19.999999999999996 z M 81.82 20 C 81.67999999999999 20 81.58 19.88 81.58 19.74 L 81.58 14.979999999999999 L 77.34 7.879999999999999 C 77.3 7.799999999999999 77.3 7.699999999999999 77.36 7.619999999999999 C 77.4 7.539999999999999 77.48 7.499999999999999 77.58 7.499999999999999 L 80.17999999999999 7.499999999999999 C 80.27999999999999 7.499999999999999 80.36 7.539999999999999 80.39999999999999 7.639999999999999 L 83.11999999999999 12.079999999999998 L 85.77999999999999 7.639999999999998 C 85.82 7.559999999999998 85.89999999999999 7.499999999999998 85.99999999999999 7.499999999999998 L 88.61999999999999 7.499999999999998 C 88.69999999999999 7.499999999999998 88.8 7.539999999999998 88.83999999999999 7.619999999999998 C 88.87999999999998 7.699999999999998 88.88 7.799999999999998 88.83999999999999 7.879999999999998 L 84.67999999999999 14.899999999999999 L 84.67999999999999 19.74 C 84.67999999999999 19.88 84.55999999999999 20 84.41999999999999 20 L 81.82 20 z" stroke-linecap="round" />
</g>
</g>
</g>
</svg>